 <svg
  width="50"
    height="27"
    version="1.2"
    xmlns="http://www.w3.org/2000/svg"
    viewBox="0 0 91 52"
  >
    <style>
      .a {
        fill: #231f20;
      }
    </style>
    <path
      class="a"
      d="m17.9 8.6c10.6 0 18.8 3.6 27.9 6.5 5.4 1.8 11.5 3.1 19 3.1 16 0 25.9-8.4 25.9-18.1h-2c0 5.8-7.3 9.4-15 9.4-10.6 0-18.8-3.6-27.9-6.5-5.4-1.8-11.5-3.1-19-3.1-16 0-25.9 8.4-25.9 18.1h2c0-5.8 7.3-9.4 15-9.4zm55.8 33.9c-10.6 0-18.8-3.5-27.9-6.5-5.4-1.8-11.5-3.1-19-3.1-16 0-25.9 8.4-25.9 18.1h2c0-5.8 7.3-9.4 15-9.4 10.6 0 18.8 3.6 27.9 6.5 5.4 1.8 11.5 3.1 19 3.1 16 0 25.9-8.3 25.9-18h-2c0 5.7-7.3 9.3-15 9.3z"
    />
  </svg>